<svg width="13" height="15" viewBox="0 0 13 15" fill="none" xmlns="http://www.w3.org/2000/svg">
<path d="M6.44473 8.08238C6.46055 8.08238 6.47638 8.08238 6.49537 8.08238C6.5017 8.08238 6.50803 8.08238 6.51436 8.08238C6.52385 8.08238 6.53651 8.08238 6.54601 8.08238C7.47332 8.06685 8.2234 7.74691 8.77726 7.13499C9.99575 5.78689 9.79319 3.47586 9.77104 3.25532C9.69192 1.5997 8.89436 0.807617 8.23606 0.437977C7.7455 0.161523 7.17266 0.0124249 6.53335 0H6.51119C6.50803 0 6.5017 0 6.49853 0H6.47954C6.12824 0 5.43829 0.055912 4.77683 0.425552C4.1122 0.795192 3.30198 1.58728 3.22286 3.25532C3.2007 3.47586 2.99815 5.78689 4.21664 7.13499C4.76733 7.74691 5.51741 8.06685 6.44473 8.08238ZM4.06789 3.33297C4.06789 3.32366 4.07105 3.31434 4.07105 3.30812C4.17549 1.08096 5.78643 0.841786 6.47638 0.841786H6.48904C6.49537 0.841786 6.50486 0.841786 6.51436 0.841786C7.36888 0.860423 8.82157 1.20211 8.91968 3.30812C8.91968 3.31744 8.91968 3.32676 8.92285 3.33297C8.92601 3.35472 9.14756 5.46695 8.14112 6.57897C7.74234 7.02006 7.21063 7.23749 6.51119 7.2437C6.50486 7.2437 6.5017 7.2437 6.49537 7.2437C6.48904 7.2437 6.48587 7.2437 6.47954 7.2437C5.78326 7.23749 5.2484 7.02006 4.85278 6.57897C3.84951 5.47316 4.06472 3.35161 4.06789 3.33297Z" fill="#E5E5E5"/>
<path d="M12.9991 11.9155C12.9991 11.9124 12.9991 11.9093 12.9991 11.9062C12.9991 11.8814 12.9959 11.8565 12.9959 11.8285C12.977 11.2135 12.9358 9.77534 11.5622 9.31562C11.5528 9.31251 11.5401 9.30941 11.5306 9.3063C10.1032 8.94909 8.91639 8.14147 8.90373 8.13215C8.71067 7.99858 8.44482 8.04518 8.30873 8.23465C8.17264 8.42413 8.22011 8.68506 8.41317 8.81862C8.46697 8.8559 9.72661 9.71632 11.3027 10.1139C12.0401 10.3717 12.1224 11.1452 12.1446 11.8534C12.1446 11.8814 12.1446 11.9062 12.1478 11.9311C12.1509 12.2106 12.1319 12.6424 12.0813 12.8909C11.5686 13.1766 9.55886 14.1644 6.50157 14.1644C3.45693 14.1644 1.43456 13.1735 0.918683 12.8878C0.868044 12.6393 0.84589 12.2075 0.85222 11.9279C0.85222 11.9031 0.855385 11.8782 0.855385 11.8503C0.877539 11.1421 0.959827 10.3686 1.69725 10.1108C3.27337 9.71321 4.533 8.84969 4.5868 8.81552C4.77986 8.68195 4.82734 8.42103 4.69125 8.23155C4.55516 8.04207 4.2893 7.99548 4.09624 8.12904C4.08358 8.13836 2.90308 8.94598 1.46938 9.30319C1.45672 9.3063 1.44722 9.30941 1.43773 9.31251C0.0641595 9.77534 0.0230158 11.2135 0.00402635 11.8254C0.00402635 11.8534 0.00402628 11.8783 0.000861374 11.9031C0.000861374 11.9062 0.000861374 11.9093 0.000861374 11.9124C-0.00230353 12.0739 -0.00546837 12.9033 0.162271 13.3195C0.19392 13.4003 0.250889 13.4686 0.326846 13.5152C0.421793 13.5774 2.69736 15 6.50473 15C10.3121 15 12.5877 13.5742 12.6826 13.5152C12.7554 13.4686 12.8155 13.4003 12.8472 13.3195C13.0054 12.9064 13.0023 12.077 12.9991 11.9155Z" fill="#E5E5E5"/>
</svg>
